<?xml version="1.0" encoding="utf-8"?>
<!-- Generator: Adobe Illustrator 18.0.0, SVG Export Plug-In . SVG Version: 6.00 Build 0)  -->
<!DOCTYPE svg PUBLIC "-//W3C//DTD SVG 1.1//EN" "http://www.w3.org/Graphics/SVG/1.1/DTD/svg11.dtd">
<svg version="1.1" id="Layer_1" xmlns="http://www.w3.org/2000/svg" xmlns:xlink="http://www.w3.org/1999/xlink" x="0px" y="0px"
	 viewBox="0 0 969.2 286.2" enable-background="new 0 0 969.2 286.2" xml:space="preserve">
<path fill="#231F20" d="M136.4,282.3V89h-0.8l-35,153.4h-25L40.5,89h-0.8v193.2H0V4h55.3l33,149.5H89L121.6,4h56.8v278.3H136.4z"/>
<path fill="#231F20" d="M335.9,62.4v7.2l-40.5,4V63.2c0-15.9-7.6-24.3-21.5-24.3c-13.9,0-21.5,8.3-21.5,24.3v3.6
	c0,16.3,7.2,30.2,35.4,54.1c38.6,32.6,52.9,55.7,52.9,89v13.9c0,39.8-23.5,62.4-65.2,62.4c-41.7,0-65.2-22.7-65.2-62.4v-18.7l40.5-4
	V221c0,17.5,8,26.2,23.9,26.2s23.9-8.7,23.9-26.2v-9.1c0-17.5-8.3-31.4-36.6-55.3c-38.6-32.6-51.7-55.7-51.7-88.3v-6
	C210.3,22.7,233,0,273.1,0S335.9,22.7,335.9,62.4z"/>
<path fill="#231F20" d="M423.8,164.6h-19.5v117.7h-42.1V4H423c45.3,0,70,24.6,70,70.4v19.9c0,29.4-10.3,50.1-29.8,61.2l38.6,126.8
	h-44.5L423.8,164.6z M404.3,125.6h17.1c20.3,0,29.4-10.7,29.4-34.2V77.1c0-23.5-9.1-34.2-29.4-34.2h-17.1V125.6z"/>
<g>
	<path fill="#231F20" d="M523.8,4.2H574v7.1h-43.2v50.7H574V69h-43.2v50.9H574v7h-50.3V4.2z"/>
	<path fill="#231F20" d="M589.9,126.9V4.2h10.8l28.5,83.2l4,12.7V4.2h7v122.7h-4.8l-32.9-96.3L597,13.6v113.2H589.9z"/>
	<path fill="#231F20" d="M681.2,4.2c6.9,0,12.8,2.4,17.7,7.3c4.9,5,7.3,10.9,7.3,17.9v16.9h-6.9V29.3c0-5-1.8-9.3-5.4-12.9
		c-3.5-3.5-7.8-5.2-12.7-5.2c-5,0-9.3,1.7-12.9,5.2c-3.6,3.5-5.4,7.8-5.4,12.9v72.5c0,4.9,1.8,9.2,5.4,12.7
		c3.5,3.5,7.8,5.3,12.9,5.3c4.9,0,9.2-1.8,12.7-5.3c3.6-3.5,5.4-7.8,5.4-12.7V69h-21.7v-7.1h28.6v39.9c0,6.9-2.4,12.8-7.3,17.6
		c-4.9,4.9-10.8,7.4-17.7,7.4c-7,0-12.9-2.5-17.9-7.4c-4.9-4.9-7.3-10.7-7.3-17.6V29.3c0-6.9,2.4-12.9,7.3-17.9
		C668.3,6.6,674.2,4.2,681.2,4.2z"/>
	<path fill="#231F20" d="M729,119.9h43.3v7h-50.2V4.2h6.9V119.9z"/>
	<path fill="#231F20" d="M781.8,4.2h7.1v122.7h-7.1V4.2z"/>
	<path fill="#231F20" d="M830,4.2c6.7,0,12.4,2.5,17.2,7.5c5.3,5.5,7.9,12.7,7.9,21.8V37h-7v-3.6c0-7.1-1.9-12.8-5.8-16.9
		c-3.4-3.5-7.5-5.2-12.3-5.2c-4.9,0-9,1.8-12.4,5.3c-3.8,4.1-5.7,9.7-5.7,16.8v3.3c0,7.1,1.9,12.3,5.6,15.7
		c2.3,2.2,6.8,4.4,13.7,6.7c7.6,2.5,12.9,5.2,16,8c5.3,4.8,8,11.8,8,21v9.6c0,9.1-2.6,16.3-7.9,21.8c-4.7,4.9-10.4,7.4-17.2,7.4
		c-6.9,0-12.7-2.5-17.5-7.5c-5.1-5.4-7.7-12.6-7.7-21.6v-3.6h7.1v3.6c0,7.1,1.9,12.8,5.7,16.8c3.4,3.5,7.5,5.3,12.4,5.3
		c4.8,0,8.9-1.8,12.3-5.3c3.9-4.1,5.8-9.7,5.8-16.8v-9.6c0-7.1-1.9-12.4-5.6-15.9c-2.3-2.1-6.8-4.3-13.6-6.6c-7.6-2.5-12.9-5.2-16-8
		c-5.3-4.8-8-11.8-8-21v-3.3c0-9.1,2.6-16.3,7.9-21.8C817.5,6.7,823.2,4.2,830,4.2z"/>
	<path fill="#231F20" d="M921.2,126.9h-7V69H878v57.9h-7.1V4.2h7.1v57.7h36.2V4.2h7V126.9z"/>
</g>
<g>
	<path fill="#231F20" d="M567.6,159.6v7.1H546v115.6h-7V166.6h-21.6v-7.1H567.6z"/>
	<path fill="#231F20" d="M620.4,159.6h7v97.7c0,6.9-2.5,12.8-7.4,17.6c-4.9,4.9-10.8,7.4-17.7,7.4c-6.9,0-12.9-2.5-17.9-7.4
		c-4.9-4.9-7.3-10.7-7.3-17.6v-97.7h6.9v97.7c0,4.9,1.8,9.2,5.4,12.7c3.5,3.5,7.8,5.3,12.9,5.3c4.9,0,9.2-1.8,12.8-5.3
		c3.5-3.5,5.3-7.8,5.3-12.7V159.6z"/>
	<path fill="#231F20" d="M687.1,159.6v7.1h-21.6v115.6h-7V166.6h-21.6v-7.1H687.1z"/>
	<path fill="#231F20" d="M721.8,159.6c6.9,0,12.8,2.4,17.7,7.3c4.9,5,7.4,10.9,7.4,17.9v72.5c0,6.9-2.5,12.8-7.4,17.6
		c-4.9,4.9-10.8,7.4-17.7,7.4c-6.9,0-12.9-2.5-17.9-7.4c-4.9-4.9-7.3-10.7-7.3-17.6v-72.5c0-6.9,2.4-12.9,7.3-17.9
		C708.9,162,714.9,159.6,721.8,159.6z M739.9,184.7c0-5-1.8-9.3-5.3-12.9c-3.5-3.5-7.8-5.2-12.8-5.2c-5,0-9.3,1.7-12.9,5.2
		c-3.5,3.5-5.2,7.8-5.2,12.9v72.5c0,4.9,1.7,9.2,5.2,12.7c3.5,3.5,7.8,5.3,12.9,5.3c5,0,9.2-1.8,12.8-5.3c3.5-3.5,5.3-7.8,5.3-12.7
		V184.7z"/>
	<path fill="#231F20" d="M807.1,282.3l-21.7-57.8h-15.6v57.9h-7.1V159.6H788c10.7,0,18.1,3.9,22,11.6c2.1,4.2,3.1,10,3.1,17.5v6.3
		c0,8-2.1,14.7-6.3,19.9c-3.7,4.7-8.3,7.6-14.1,8.9l21.9,58.5H807.1z M769.9,217.4h17.4l3-0.2c4.4-0.8,8.1-3,11-6.6
		c3.2-4,4.8-9.2,4.8-15.6v-6.3c0-7.5-1.2-12.8-3.5-16.1c-2.7-3.9-7.6-5.9-14.6-5.9h-18.1V217.4z"/>
	<path fill="#231F20" d="M830,159.6h7.1v122.7H830V159.6z"/>
	<path fill="#231F20" d="M852.9,282.3V159.6h10.8l28.5,83.2l4,12.7v-95.9h7v122.7h-4.8l-32.9-96.3L860,169v113.2H852.9z"/>
	<path fill="#231F20" d="M944.2,159.6c6.9,0,12.8,2.4,17.7,7.3c4.9,5,7.3,10.9,7.3,17.9v16.9h-6.9v-16.9c0-5-1.8-9.3-5.4-12.9
		c-3.5-3.5-7.8-5.2-12.7-5.2c-5,0-9.3,1.7-12.9,5.2c-3.6,3.5-5.4,7.8-5.4,12.9v72.5c0,4.9,1.8,9.2,5.4,12.7
		c3.5,3.5,7.8,5.3,12.9,5.3c4.9,0,9.2-1.8,12.7-5.3c3.6-3.5,5.4-7.8,5.4-12.7v-32.9h-21.7v-7.1h28.6v39.9c0,6.9-2.4,12.8-7.3,17.6
		c-4.9,4.9-10.8,7.4-17.7,7.4c-7,0-12.9-2.5-17.9-7.4c-4.9-4.9-7.3-10.7-7.3-17.6v-72.5c0-6.9,2.4-12.9,7.3-17.9
		C931.3,162,937.2,159.6,944.2,159.6z"/>
</g>
</svg>
